# xmcd CD database file
#
# Track frame offsets:
#	180
#	46325
#	76500
#	111260
#	145955
#	173100
#	193570
#	230610
#
# Disc length: 3369 seconds
#
# Revision: 0
# Processed by: cddbd v1.5.1PL0 Copyright (c) Steve Scherf et al.
# Submitted via: CDex 1.51
#
DISCID=610d2708
DTITLE=Various Artist - A New Home
DYEAR=1900
DGENRE=Jazz
TTITLE0=Stanley Turrentine/A Little Sweetness
TTITLE1=New York Voices/Open Invitation
TTITLE2=Joe NegriDjango Suite
TTITLE3=Jon Faddis/Perdido
TTITLE4=Aliquo, Jr. and Gordan/The Kicker
TTITLE5=Kenia/Just Squeeze Me
TTITLE6=Kenny Blake/Tell Me A Bedtime Story
TTITLE7=Ray Brown/Daddy Ray/Sign-off
EXTD=
EXTT0=
EXTT1=
EXTT2=
EXTT3=
EXTT4=
EXTT5=
EXTT6=
EXTT7=
PLAYORDER=
